<svg xmlns="http://www.w3.org/2000/svg" width="361.073" height="48.504"><g fill="#fff"><path d="M0 47.324v-46.213h7.356v46.213h-7.356zM40.869 47.324l-13.253-22.066-4.719-8.466v30.532h-6.939v-46.213h5.69l12.907 22.482 4.51 8.465v-30.947h6.939v46.213h-5.135zM69.731 47.324h-15.127v-46.213h15.127c9.854 0 14.294 6.105 14.294 13.6v19.013c.001 7.494-4.44 13.6-14.294 13.6zm6.94-31.849c0-4.857-2.36-7.772-7.564-7.772h-7.147v33.029h7.146c5.204 0 7.564-2.914 7.564-7.703v-17.554zM91.933 47.324v-46.213h7.355v46.213h-7.355zM128.986 47.324l-2.984-11.935h-11.865l-2.845 11.935h-7.216l12.212-46.213h7.771l12.352 46.213h-7.425zm-9.021-36.221l-4.372 18.18h8.882l-4.51-18.18zM166.106 47.324l-13.253-22.066-4.719-8.466v30.532h-6.939v-46.213h5.69l12.907 22.482 4.51 8.465v-30.947h6.939v46.213h-5.135zM227.719 47.324h-7.216l-6.939-32.752-7.355 32.752h-7.217l-9.576-46.213h7.563l5.76 34.625 7.563-34.625h6.87l7.078 34.625 5.828-34.625h7.356l-9.715 46.213zM242.286 47.324v-46.213h24.981v6.592h-17.625v12.143h12.699v6.246h-12.699v14.641h17.625v6.592h-24.981zM273.854 47.324v-46.213h7.356v39.621h17.208v6.592h-24.564zM303.76 47.324v-46.213h7.354v39.621h17.21v6.592h-24.564zM346.362 48.504c-8.744 0-14.572-5.552-14.572-12.976v-2.22h7.286v.763c0 5.552 2.567 8.188 7.494 8.188 4.648 0 7.078-2.776 7.078-6.661 0-3.886-1.875-5.898-8.813-9.091-6.176-2.845-12.421-6.522-12.421-13.877 0-6.94 5.066-12.63 13.879-12.63 8.743 0 14.363 5.481 14.363 12.976v1.804h-7.078v-.763c0-4.233-2.15-7.841-7.493-7.841-4.233 0-6.314 2.498-6.314 5.759 0 3.678 1.942 5.343 9.853 9.16 8.118 3.886 11.45 7.355 11.45 13.669-.001 7.772-5.9 13.74-14.712 13.74z"/></g></svg>