<?xml version="1.0" encoding="utf-8"?>
<!DOCTYPE svg PUBLIC "-//W3C//DTD SVG 1.1//EN" "http://www.w3.org/Graphics/SVG/1.1/DTD/svg11.dtd">
<svg version="1.1" id="Layer_1" xmlns="http://www.w3.org/2000/svg" xmlns:xlink="http://www.w3.org/1999/xlink" x="0px" y="0px"
	 width="235px" height="173.667px" viewBox="0 0 235 173.667" enable-background="new 0 0 235 173.667" xml:space="preserve">
	<path fill="#33CCFF" d="M197.223,82.571c-5.611,0.958-13.75-0.038-18.061-1.832c8.96-0.742,15.027-4.815,17.365-10.343
		c-3.229,1.988-13.26,4.153-18.793,2.09c-0.275-1.301-0.575-2.539-0.879-3.66c-4.213-15.506-18.663-28.001-33.794-26.491
		c1.22-0.495,2.458-0.955,3.708-1.375c1.656-0.597,11.436-2.192,9.898-5.639c-1.303-3.041-13.249,2.287-15.496,2.987
		c2.969-1.113,7.881-3.033,8.403-6.451c-4.546,0.623-9.012,2.777-12.46,5.906c1.248-1.34,2.191-2.974,2.391-4.737
		c-12.133,7.762-19.222,23.396-24.955,38.574c-4.501-4.372-8.502-7.812-12.079-9.729c-10.043-5.384-22.057-11.012-40.906-18.019
		c-0.58,6.243,3.083,14.55,13.63,20.066c-2.283-0.309-6.462,0.383-9.799,1.177c1.359,7.16,5.805,13.052,17.851,15.898
		c-5.503,0.362-8.353,1.624-10.928,4.318c2.506,4.978,8.63,10.831,19.628,9.627c-12.24,5.282-4.992,15.061,4.968,13.601
		c-16.98,17.566-43.761,16.263-59.139,1.583c40.145,54.762,127.421,32.382,140.421-20.363
		C187.951,89.841,193.672,86.386,197.223,82.571z"/>
</svg>
