<?xml version="1.0" encoding="UTF-8" standalone="no"?>
<svg width="199px" height="312px" viewBox="0 0 199 312" version="1.1" xmlns="http://www.w3.org/2000/svg" xmlns:xlink="http://www.w3.org/1999/xlink" xmlns:sketch="http://www.bohemiancoding.com/sketch/ns">
    <!-- Generator: Sketch 3.3.3 (12081) - http://www.bohemiancoding.com/sketch -->
    <title>Rectangle 185 Copy 2 + Rectangle 185 Copy 3</title>
    <desc>Created with Sketch.</desc>
    <defs></defs>
    <g id="Page-1" stroke="none" stroke-width="1" fill="none" fill-rule="evenodd" sketch:type="MSPage">
        <g id="Desktop-HD" sketch:type="MSArtboardGroup" transform="translate(-1835.000000, -983.000000)" stroke="#8C4077" stroke-width="18" stroke-linecap="round" stroke-linejoin="round">
            <g id="Rectangle-198-+-Bottom-Menu-Copy-2" sketch:type="MSLayerGroup" transform="translate(1590.000000, 867.000000)">
                <g id="Rectangle-185-+-Rectangle-185-Copy-2" transform="translate(254.000000, 125.000000)" sketch:type="MSShapeGroup">
                    <g id="Rectangle-185-Copy-2-+-Rectangle-185-Copy-3">
                        <path d="M33.1115003,81.0546819 C30.7646235,76.4580225 29.1205818,71.6883458 28.1397203,66.8675635 C23.2882309,43.023244 34.6610562,17.9286578 57.4597545,6.33571102 C84.8618091,-7.59800386 118.403741,3.29417869 132.343118,30.5962368 L174.952138,114.051469 C188.907023,141.383903 178.011963,174.833662 150.603884,188.77044 C123.201829,202.704155 89.6598967,191.811973 75.7205199,164.509915 L53.9132952,124.056757" id="Rectangle-185-Copy-2"></path>
                        <path d="M148.630332,213.088482 C150.977209,217.685141 152.62125,222.454818 153.602112,227.2756 C158.453601,251.11992 147.080776,276.214506 124.282077,287.807453 C96.8800228,301.741168 63.3380905,290.848985 49.3987138,263.546927 L6.78969414,180.091694 C-7.16519101,152.759261 3.72986877,119.309502 31.1379484,105.372724 C58.540003,91.4390087 92.0819353,102.331191 106.021312,129.633249 L128.992744,170.378498" id="Rectangle-185-Copy-3"></path>
                    </g>
                </g>
            </g>
        </g>
    </g>
</svg>