<?xml version="1.0" encoding="utf-8"?>
<!-- Generator: Adobe Illustrator 15.0.0, SVG Export Plug-In . SVG Version: 6.00 Build 0)  -->
<!DOCTYPE svg PUBLIC "-//W3C//DTD SVG 1.1//EN" "http://www.w3.org/Graphics/SVG/1.1/DTD/svg11.dtd">
<svg version="1.1" id="Livello_1" xmlns="http://www.w3.org/2000/svg" xmlns:xlink="http://www.w3.org/1999/xlink" x="0px" y="0px"
	 width="200px" height="200px" viewBox="0 0 200 200" enable-background="new 0 0 200 200" xml:space="preserve">
<g>
	<g>
		<g>
			<g>
				<path fill-rule="evenodd" clip-rule="evenodd" fill="#EC671C" d="M119.234,71.537H81.186l-24.46-25.003V155.24l43.482-21.74
					l43.483,21.74V46.534L119.234,71.537z M121.951,106.323H78.468c-3.002,0-5.436-3.648-5.436-8.153
					c0-4.503,2.434-8.152,5.436-8.152h43.483c3.004,0,5.434,3.649,5.434,8.152C127.385,102.675,124.955,106.323,121.951,106.323z"/>
			</g>
		</g>
		<g>
			<rect x="82.205" y="95.453" fill="#EC671C" width="10.87" height="5.436"/>
			<rect x="107.344" y="95.453" fill="#EC671C" width="10.869" height="5.436"/>
		</g>
	</g>
	<path fill="none" stroke="#EC671C" stroke-width="12" stroke-miterlimit="10" d="M13.466,100c0,47.787,38.742,86.533,86.532,86.533
		c47.787,0,86.535-38.746,86.535-86.533c0-47.791-38.748-86.533-86.535-86.533C52.208,13.467,13.466,52.209,13.466,100z"/>
</g>
</svg>
